<svg xmlns="http://www.w3.org/2000/svg" viewBox="0 0 500 500" width="500" height="500">
  <defs>
    <clipPath id="flagClip"><circle cx="0" cy="0" r="11"/></clipPath>
    <clipPath id="globeClip"><circle cx="250" cy="250" r="32"/></clipPath>
  </defs>

  <rect width="500" height="500" fill="#EFE6C9"/>
  <circle cx="250" cy="250" r="240" fill="none" stroke="#C99A2E" stroke-width="1.8" stroke-dasharray="6 8" opacity="0.6"/>

  <g fill="#C99A2E" opacity="0.85">
    <circle cx="250" cy="40" r="3.5"/>
    <circle cx="350.1" cy="59.5" r="3.5"/>
    <circle cx="426.9" cy="127.9" r="3.5"/>
    <circle cx="463.5" cy="224.1" r="3.5"/>
    <circle cx="450.9" cy="326.4" r="3.5"/>
    <circle cx="392.5" cy="410.9" r="3.5"/>
    <circle cx="301.5" cy="458.8" r="3.5"/>
    <circle cx="198.5" cy="458.8" r="3.5"/>
    <circle cx="107.5" cy="410.9" r="3.5"/>
    <circle cx="49.1" cy="326.4" r="3.5"/>
    <circle cx="36.5" cy="224.1" r="3.5"/>
    <circle cx="73.1" cy="127.9" r="3.5"/>
    <circle cx="149.9" cy="59.5" r="3.5"/>
  </g>

  <g fill="none" stroke-width="1.5">
    <ellipse cx="250" cy="250" rx="185" ry="95" stroke="#C99A2E" opacity="0.55" transform="rotate(-15 250 250)"/>
    <ellipse cx="250" cy="250" rx="185" ry="95" stroke="#1B4640" opacity="0.3" transform="rotate(45 250 250)"/>
    <ellipse cx="250" cy="250" rx="185" ry="95" stroke="#C99A2E" opacity="0.45" transform="rotate(105 250 250)"/>
  </g>

  <!-- هسته -->
  <circle cx="250" cy="250" r="78" fill="#1B4640"/>
  <circle cx="250" cy="250" r="78" fill="none" stroke="#C99A2E" stroke-width="3.5"/>

  <!-- کره زمین -->
  <circle cx="250" cy="250" r="32" fill="#163832"/>
  <g clip-path="url(#globeClip)">
    <ellipse cx="250" cy="250" rx="32" ry="32" fill="none" stroke="#C99A2E" stroke-width="0.6" opacity="0.45"/>
    <ellipse cx="250" cy="250" rx="22" ry="32" fill="none" stroke="#C99A2E" stroke-width="0.6" opacity="0.45"/>
    <ellipse cx="250" cy="250" rx="11" ry="32" fill="none" stroke="#C99A2E" stroke-width="0.6" opacity="0.45"/>
    <line x1="218" y1="250" x2="282" y2="250" stroke="#C99A2E" stroke-width="0.6" opacity="0.55"/>
    <line x1="220" y1="233" x2="280" y2="233" stroke="#C99A2E" stroke-width="0.5" opacity="0.4"/>
    <line x1="219" y1="241" x2="281" y2="241" stroke="#C99A2E" stroke-width="0.5" opacity="0.35"/>
    <line x1="219" y1="259" x2="281" y2="259" stroke="#C99A2E" stroke-width="0.5" opacity="0.35"/>
    <line x1="220" y1="267" x2="280" y2="267" stroke="#C99A2E" stroke-width="0.5" opacity="0.4"/>
  </g>
  <circle cx="250" cy="250" r="32" fill="none" stroke="#C99A2E" stroke-width="1.5"/>

  <!-- ================= پرچم‌ها ================= -->

  <!-- ایران - با علامتِ الله، بدون متنِ الله اکبر دور -->
  <g transform="translate(250 302)">
    <g clip-path="url(#flagClip)">
      <g transform="translate(-11 -11) scale(0.04296875)">
        <path fill="#fff" d="M256.001 19.596c65.278 0 124.383 26.466 167.163 69.243 42.776 42.779 69.243 101.884 69.243 167.162s-26.467 124.383-69.246 167.16c-42.777 42.779-101.882 69.246-167.16 69.246-65.278 0-124.383-26.467-167.162-69.243-42.777-42.78-69.243-101.885-69.243-167.163S46.062 131.618 88.839 88.839c42.779-42.777 101.884-69.243 167.162-69.243z"/>
        <path fill="#DA0000" d="M453.474 344.645c-33.862 75.319-109.54 127.764-197.473 127.764-87.927 0-163.593-52.431-197.463-127.737l.008.018h394.907l.021-.045z"/>
        <path fill="#239F40" d="M58.254 167.98h395.491C420.02 92.331 344.173 39.594 256.001 39.594c-88.175 0-164.024 52.737-197.747 128.386z"/>
        <path fill="#DA0000" d="M295.736 300.164a50.597 50.597 0 0025.308-43.829c0-23.217-15.804-43.479-38.32-49.114a66.294 66.294 0 0126.448 52.971 66.242 66.242 0 01-13.436 39.972zm-81.942 0a50.597 50.597 0 01-25.308-43.829c0-23.217 15.804-43.479 38.319-49.114a66.294 66.294 0 00-26.448 52.971 66.243 66.243 0 0013.437 39.972zm40.934-105.09a9.028 9.028 0 01-7.814 4.508 9.066 9.066 0 01-8.891-7.389 9.643 9.643 0 00-.677 3.557 9.567 9.567 0 009.568 9.567c3.105 0 6.036-1.527 7.851-4.064 1.816 2.537 4.746 4.064 7.851 4.064a9.567 9.567 0 009.568-9.567c0-1.203-.225-2.43-.676-3.557-.802 4.283-4.559 7.389-8.892 7.389-3.23 0-6.285-1.729-7.888-4.508zm36.357 116.684a60.876 60.876 0 01-18.705 2.958c-4.243 0-8.383-.439-12.379-1.274l-.084 2.062-5.156 7.097-5.156-7.097-.083-2.06a60.553 60.553 0 01-12.372 1.272 60.876 60.876 0 01-18.705-2.958c1.052.05 2.175.077 3.227.077a66.104 66.104 0 0022.707-3.996c-19.272-10.102-32.433-30.301-32.433-53.558a60.464 60.464 0 0121.014-45.808 66.137 66.137 0 00-11.371 37.092c0 22.052 10.781 41.591 27.356 53.638l-2.005-49.522-.005-38.954a20.357 20.357 0 007.826-6.562 20.353 20.353 0 007.827 6.562l-.005 38.954-2.006 49.528c16.58-12.046 27.365-31.588 27.365-53.644a66.145 66.145 0 00-11.371-37.092 60.467 60.467 0 0121.013 45.808c0 23.257-13.16 43.456-32.433 53.558a66.104 66.104 0 0022.707 3.996c1.052 0 2.175-.027 3.227-.077z"/>
      </g>
    </g>
    <circle cx="0" cy="0" r="11" fill="none" stroke="#EFE6C9" stroke-width="1.2"/>
  </g>

  <!-- انگلیسی -->
  <g transform="translate(225.9 296.1)">
    <g clip-path="url(#flagClip)">
      <rect x="-11" y="-11" width="22" height="22" fill="#012169"/>
      <path d="M -11 -11 L 11 11 M -11 11 L 11 -11" stroke="#fff" stroke-width="3.3"/>
      <path d="M -11 -11 L 11 11 M -11 11 L 11 -11" stroke="#C8102E" stroke-width="1.7"/>
      <rect x="-11" y="-1.7" width="22" height="3.4" fill="#fff"/>
      <rect x="-1.7" y="-11" width="3.4" height="22" fill="#fff"/>
      <rect x="-11" y="-1.2" width="22" height="2.4" fill="#C8102E"/>
      <rect x="-1.2" y="-11" width="2.4" height="22" fill="#C8102E"/>
    </g>
    <circle cx="0" cy="0" r="11" fill="none" stroke="#EFE6C9" stroke-width="1.2"/>
  </g>

  <!-- ایتالیایی -->
  <g transform="translate(207.2 279.6)">
    <g clip-path="url(#flagClip)">
      <rect x="-11" y="-11" width="7.33" height="22" fill="#009246"/>
      <rect x="-3.67" y="-11" width="7.33" height="22" fill="#fff"/>
      <rect x="3.67" y="-11" width="7.33" height="22" fill="#CE2B37"/>
    </g>
    <circle cx="0" cy="0" r="11" fill="none" stroke="#EFE6C9" stroke-width="1.2"/>
  </g>

  <!-- هندی -->
  <g transform="translate(198.4 256.2)">
    <g clip-path="url(#flagClip)">
      <rect x="-11" y="-11" width="22" height="7.33" fill="#FF9933"/>
      <rect x="-11" y="-3.67" width="22" height="7.33" fill="#fff"/>
      <rect x="-11" y="3.67" width="22" height="7.33" fill="#138808"/>
      <circle cx="0" cy="0" r="2.6" fill="none" stroke="#000080" stroke-width="0.8"/>
    </g>
    <circle cx="0" cy="0" r="11" fill="none" stroke="#EFE6C9" stroke-width="1.2"/>
  </g>

  <!-- ترکی -->
  <g transform="translate(201.4 231.5)">
    <g clip-path="url(#flagClip)">
      <rect x="-11" y="-11" width="22" height="22" fill="#E30A17"/>
      <circle cx="-2.7" cy="0" r="3.8" fill="#fff"/>
      <circle cx="-1.3" cy="0" r="3" fill="#E30A17"/>
      <path d="M 2.2 0 L 3.5 -1.3 L 2.7 0.7 L 4.3 0.7 L 2.8 1.7 L 3.5 3.5 L 2.2 2.3 L 0.9 3.5 L 1.5 1.7 L 0 0.7 L 1.6 0.7 L 0.9 -1.3 Z" fill="#fff"/>
    </g>
    <circle cx="0" cy="0" r="11" fill="none" stroke="#EFE6C9" stroke-width="1.2"/>
  </g>

  <!-- عربستان -->
  <g transform="translate(215.6 211.1)">
    <g clip-path="url(#flagClip)">
      <rect x="-11" y="-11" width="22" height="22" fill="#165d31"/>
      <path d="M -7 -4.5 Q -5 -5.5 -3 -4.5 Q -1 -3.5 1 -4.5 Q 3 -5.5 5 -4.5 Q 6.5 -3.8 7.5 -4.5" fill="none" stroke="#fff" stroke-width="1.1" stroke-linecap="round"/>
      <path d="M -7 -2 Q -5 -3 -3 -2 Q -1 -1 1 -2 Q 3 -3 5 -2 Q 6.5 -1.3 7.5 -2" fill="none" stroke="#fff" stroke-width="1.1" stroke-linecap="round"/>
      <path d="M -7 0.5 Q -5 -0.5 -3 0.5 Q -1 1.5 1 0.5 Q 3 -0.5 5 0.5 Q 6.5 1.2 7.5 0.5" fill="none" stroke="#fff" stroke-width="1.1" stroke-linecap="round"/>
      <rect x="-7.5" y="4.2" width="14" height="1.1" fill="#fff"/>
      <path d="M 6.5 4.2 L 8.5 4.75 L 6.5 5.3 Z" fill="#fff"/>
      <rect x="-8.2" y="3.8" width="1.2" height="1.9" rx="0.3" fill="#fff"/>
    </g>
    <circle cx="0" cy="0" r="11" fill="none" stroke="#EFE6C9" stroke-width="1.2"/>
  </g>

  <!-- اسپانیایی -->
  <g transform="translate(237.7 199.5)">
    <g clip-path="url(#flagClip)">
      <rect x="-11" y="-11" width="22" height="5.5" fill="#AA151B"/>
      <rect x="-11" y="-5.5" width="22" height="11" fill="#F1BF00"/>
      <rect x="-11" y="5.5" width="22" height="5.5" fill="#AA151B"/>
      <rect x="-6" y="-2.2" width="3" height="4.4" fill="#AA151B" opacity="0.6"/>
    </g>
    <circle cx="0" cy="0" r="11" fill="none" stroke="#EFE6C9" stroke-width="1.2"/>
  </g>

  <!-- آلمانی -->
  <g transform="translate(262.3 199.5)">
    <g clip-path="url(#flagClip)">
      <rect x="-11" y="-11" width="22" height="7.33" fill="#000"/>
      <rect x="-11" y="-3.67" width="22" height="7.33" fill="#DD0000"/>
      <rect x="-11" y="3.67" width="22" height="7.33" fill="#FFCE00"/>
    </g>
    <circle cx="0" cy="0" r="11" fill="none" stroke="#EFE6C9" stroke-width="1.2"/>
  </g>

  <!-- فرانسوی -->
  <g transform="translate(284.4 211.1)">
    <g clip-path="url(#flagClip)">
      <rect x="-11" y="-11" width="7.33" height="22" fill="#002395"/>
      <rect x="-3.67" y="-11" width="7.33" height="22" fill="#fff"/>
      <rect x="3.67" y="-11" width="7.33" height="22" fill="#ED2939"/>
    </g>
    <circle cx="0" cy="0" r="11" fill="none" stroke="#EFE6C9" stroke-width="1.2"/>
  </g>

  <!-- چینی -->
  <g transform="translate(298.6 231.5)">
    <g clip-path="url(#flagClip)">
      <rect x="-11" y="-11" width="22" height="22" fill="#DE2910"/>
      <path d="M -6 -6 L -4.5 -3.5 L -6 -1 L -7.5 -3.5 Z" fill="#FFDE00"/>
      <circle cx="-1" cy="-6" r="1" fill="#FFDE00"/>
      <circle cx="2" cy="-4" r="1" fill="#FFDE00"/>
      <circle cx="2" cy="-1" r="1" fill="#FFDE00"/>
      <circle cx="-1" cy="1" r="1" fill="#FFDE00"/>
    </g>
    <circle cx="0" cy="0" r="11" fill="none" stroke="#EFE6C9" stroke-width="1.2"/>
  </g>

  <!-- کره‌ای -->
  <g transform="translate(301.6 256.2)">
    <g clip-path="url(#flagClip)">
      <rect x="-11" y="-11" width="22" height="22" fill="#fff"/>
      <path d="M -3.8 0 A 3.8 3.8 0 0 1 3.8 0 Z" fill="#CD2E3A"/>
      <path d="M -3.8 0 A 3.8 3.8 0 0 0 3.8 0 Z" fill="#0047A0"/>
      <g fill="#000">
        <rect x="-9" y="-9" width="3.5" height="0.8"/>
        <rect x="-9" y="-7.4" width="3.5" height="0.8"/>
        <rect x="-9" y="-5.8" width="3.5" height="0.8"/>
        <rect x="5.5" y="5.8" width="3.5" height="0.8"/>
        <rect x="5.5" y="7.4" width="3.5" height="0.8"/>
        <rect x="5.5" y="9" width="3.5" height="0.8"/>
      </g>
    </g>
    <circle cx="0" cy="0" r="11" fill="none" stroke="#EFE6C9" stroke-width="1.2"/>
  </g>

  <!-- روسی -->
  <g transform="translate(292.8 279.6)">
    <g clip-path="url(#flagClip)">
      <rect x="-11" y="-11" width="22" height="7.33" fill="#fff"/>
      <rect x="-11" y="-3.67" width="22" height="7.33" fill="#0039A6"/>
      <rect x="-11" y="3.67" width="22" height="7.33" fill="#D52B1E"/>
    </g>
    <circle cx="0" cy="0" r="11" fill="none" stroke="#EFE6C9" stroke-width="1.2"/>
  </g>

  <!-- ژاپنی -->
  <g transform="translate(274.1 296.1)">
    <g clip-path="url(#flagClip)">
      <rect x="-11" y="-11" width="22" height="22" fill="#fff"/>
      <circle cx="0" cy="0" r="5.5" fill="#BC002D"/>
    </g>
    <circle cx="0" cy="0" r="11" fill="none" stroke="#EFE6C9" stroke-width="1.2"/>
  </g>

  <!-- ================= ۸ آیکون ================= -->

  <!-- بالا: کتاب باز -->
  <g transform="translate(250 92)">
    <circle r="32" fill="#1B4640"/>
    <circle r="32" fill="none" stroke="#C99A2E" stroke-width="1.5"/>
    <path d="M -18 -8 Q -8 -13 0 -10 L 0 12 Q -8 8 -18 12 Z" fill="#EFE6C9"/>
    <path d="M 18 -8 Q 8 -13 0 -10 L 0 12 Q 8 8 18 12 Z" fill="#EFE6C9"/>
    <line x1="0" y1="-10" x2="0" y2="12" stroke="#1B4640" stroke-width="1.5"/>
  </g>

  <!-- بالا-چپ: عکس -->
  <g transform="translate(138.3 138.3)">
    <circle r="32" fill="#1B4640"/>
    <circle r="32" fill="none" stroke="#C99A2E" stroke-width="1.5"/>
    <rect x="-16" y="-14" width="32" height="28" rx="3" fill="none" stroke="#EFE6C9" stroke-width="2.2"/>
    <circle cx="-7" cy="-5" r="3" fill="#EFE6C9"/>
    <path d="M -14 10 L -4 -2 L 4 6 L 10 0 L 16 10 Z" fill="#EFE6C9"/>
  </g>

  <!-- بالا-راست: PDF -->
  <g transform="translate(361.7 138.3)">
    <circle r="32" fill="#C99A2E"/>
    <path d="M -13 -14 L 5 -14 L 13 -6 L 13 14 L -13 14 Z" fill="#EFE6C9"/>
    <path d="M 5 -14 L 13 -6 L 5 -6 Z" fill="#C99A2E"/>
    <text x="0" y="8" font-family="Arial, sans-serif" font-size="11" font-weight="800" fill="#1B4640" text-anchor="middle">PDF</text>
  </g>

  <!-- چپ: زیرنویس SRT -->
  <g transform="translate(92 250)">
    <circle r="32" fill="#C99A2E"/>
    <rect x="-17" y="-11" width="34" height="22" rx="3" fill="#EFE6C9"/>
    <line x1="-12" y1="-5" x2="12" y2="-5" stroke="#1B4640" stroke-width="2" stroke-linecap="round"/>
    <line x1="-12" y1="0" x2="8" y2="0" stroke="#1B4640" stroke-width="2" stroke-linecap="round"/>
    <line x1="-12" y1="5" x2="2" y2="5" stroke="#1B4640" stroke-width="2" stroke-linecap="round"/>
  </g>

  <!-- راست: میکروفون -->
  <g transform="translate(408 250)">
    <circle r="32" fill="#1B4640"/>
    <circle r="32" fill="none" stroke="#C99A2E" stroke-width="1.5"/>
    <rect x="-5" y="-17" width="10" height="22" rx="5" fill="#EFE6C9"/>
    <path d="M -11 -4 Q -11 12 0 12 Q 11 12 11 -4" fill="none" stroke="#EFE6C9" stroke-width="2.5" stroke-linecap="round"/>
    <line x1="0" y1="12" x2="0" y2="18" stroke="#EFE6C9" stroke-width="2.5" stroke-linecap="round"/>
  </g>

  <!-- پایین-چپ: اسپارکل AI (نرم و گرد) -->
  <g transform="translate(138.3 361.7)">
    <circle r="32" fill="#C99A2E"/>
    <path d="M 0 -22
             C 1.5 -12 4 -6 6 -5
             C 9 -3 14 -2 22 0
             C 14 2 9 3 6 5
             C 4 6 1.5 12 0 22
             C -1.5 12 -4 6 -6 5
             C -9 3 -14 2 -22 0
             C -14 -2 -9 -3 -6 -5
             C -4 -6 -1.5 -12 0 -22 Z"
          fill="#EFE6C9"/>
  </g>

  <!-- پایین-راست: دیکشنری -->
  <g transform="translate(361.7 361.7)">
    <circle r="32" fill="#1B4640"/>
    <circle r="32" fill="none" stroke="#C99A2E" stroke-width="1.5"/>

    <g transform="scale(0.62)">
      <rect x="-26" y="16" width="52" height="12" rx="5" fill="#1B4640"/>
      <line x1="-22" y1="19" x2="22" y2="19" stroke="#EFE6C9" stroke-width="0.6" opacity="0.4"/>
      <line x1="-22" y1="21.5" x2="22" y2="21.5" stroke="#EFE6C9" stroke-width="0.6" opacity="0.4"/>
      <line x1="-22" y1="24" x2="22" y2="24" stroke="#EFE6C9" stroke-width="0.6" opacity="0.4"/>

      <rect x="-24" y="-30" width="48" height="50" rx="4" fill="#EFE6C9"/>
      <rect x="-24" y="16" width="48" height="2" fill="#1B4640" opacity="0.25"/>

      <text x="-6" y="8" font-family="Arial Black, Arial, sans-serif" font-size="32" font-weight="900" fill="#1B4640" text-anchor="middle">A</text>
      <text x="12" y="13" font-family="Arial Black, Arial, sans-serif" font-size="17" font-weight="900" fill="#C99A2E" text-anchor="middle">Z</text>
    </g>
  </g>

  <!-- پایین: سه حباب گفتار -->
  <g transform="translate(250 408)">
    <circle r="32" fill="#C99A2E"/>
    <ellipse cx="-15" cy="-10" rx="12" ry="9" fill="#EFE6C9"/>
    <path d="M -22 -3 Q -24 0 -25 3 Q -23 2 -20 0 Z" fill="#EFE6C9"/>
    <ellipse cx="15" cy="-10" rx="12" ry="9" fill="#EFE6C9"/>
    <path d="M 22 -3 Q 24 0 25 3 Q 23 2 20 0 Z" fill="#EFE6C9"/>
    <ellipse cx="0" cy="12" rx="12" ry="9" fill="#EFE6C9"/>
    <path d="M 6 19 Q 8 23 8 26 Q 5 24 2 21 Z" fill="#EFE6C9"/>
  </g>
</svg>